<svg width="512" height="512" fill="none" xmlns="http://www.w3.org/2000/svg"><defs><style>@media (prefers-color-scheme:light){rect{fill:#000}path{fill:#fff}}</style></defs><rect width="512" height="512" rx="125" fill="#fff"/><path d="m392.303 222.563-59.697 45.24a13.22 13.22 0 0 0-1.364 19.884l76.738 76.737c9.4 9.4 9.4 24.641 0 34.041l-3.548 3.547c-9.4 9.4-24.64 9.4-34.04 0l-82.927-82.927a45.467 45.467 0 0 1-13.317-32.149V116.07c0-13.293 10.777-24.07 24.071-24.07h5.081c13.294 0 24.07 10.777 24.07 24.07v83.859c0 2.21 2.528 3.466 4.29 2.132l28.662-21.711c10.597-8.027 25.695-5.943 33.722 4.655l2.909 3.842c8.025 10.595 5.943 25.689-4.65 33.716ZM106.568 402.012l-3.548-3.547c-9.4-9.4-9.4-24.641 0-34.041l67.293-67.293a45.467 45.467 0 0 0 13.317-32.149V116.07c0-13.293 10.776-24.07 24.07-24.07h5.081c13.294 0 24.071 10.777 24.071 24.07v170.866a45.467 45.467 0 0 1-13.317 32.149l-82.927 82.927c-9.4 9.4-24.64 9.4-34.04 0Z" fill="#000"/></svg>